<?xml version="1.0" standalone="no"?><!DOCTYPE svg PUBLIC "-//W3C//DTD SVG 1.1//EN" "http://www.w3.org/Graphics/SVG/1.1/DTD/svg11.dtd"><svg t="1713353884431" class="icon" viewBox="0 0 1024 1024" version="1.1" xmlns="http://www.w3.org/2000/svg" p-id="2802" xmlns:xlink="http://www.w3.org/1999/xlink" width="200" height="200"><path d="M781.3 576.6c-21.4 0-38.8-18.1-38.8-40.6 0-22.3 17.4-40.4 38.8-40.4s38.8 18.1 38.8 40.4c-0.1 22.5-17.5 40.6-38.8 40.6m-199.5 0c-21.4 0-38.8-18.1-38.8-40.6 0-22.3 17.4-40.4 38.8-40.4s38.8 18.1 38.8 40.4c0 22.5-17.4 40.6-38.8 40.6m377.5 57.6c0-131-113-238.3-256.1-247.6-6.7-0.4-13.4-0.6-20.1-0.6-152.6 0-276.2 111.1-276.2 248.2 0 20.7 2.9 40.7 8.2 59.8 29.7 108.2 138.4 188.4 268 188.4 44.1 0 85.7-9.3 122.6-25.8l62 43.8s16.5 11.9 14.9-11l-17.5-68.5c57.8-45.6 94.2-112.3 94.2-186.7M260.1 355c-21.4 0-38.8-18.1-38.8-40.4 0-22.5 17.4-40.6 38.8-40.6 21.5 0 38.8 18.1 38.8 40.6 0 22.4-17.3 40.4-38.8 40.4m244.2-80.9c21.4 0 38.8 18.1 38.8 40.6 0 22.3-17.4 40.4-38.8 40.4-21.5 0-38.8-18.1-38.8-40.4 0-22.5 17.3-40.6 38.8-40.6m178.8 91.2c6 0 11.8 0.3 17.6 0.5C678 227.1 545.1 120.6 384.4 120.6c-176.6 0-319.7 128.7-319.7 287.3 0 88.4 44.5 167.5 114.3 220.2l-23.6 92s-8.1 30.5 22.5 16.8l88.1-62.1c36.7 13.2 76.5 20.5 118.4 20.5 3.6 0 7.1-0.3 10.6-0.3-5.1-19.6-7.8-40-7.8-61-0.1-148.1 132.7-268.7 295.9-268.7" fill="#18da21" p-id="2803"></path></svg>