<?xml version="1.0" standalone="no"?><!DOCTYPE svg PUBLIC "-//W3C//DTD SVG 1.1//EN" "http://www.w3.org/Graphics/SVG/1.1/DTD/svg11.dtd"><svg t="1713343359249" class="icon" viewBox="0 0 1024 1024" version="1.1" xmlns="http://www.w3.org/2000/svg" p-id="6613" xmlns:xlink="http://www.w3.org/1999/xlink" width="200" height="200"><path d="M972.80000001 588.8a25.6 25.6 0 0 1-25.60000001 25.6l-25.6 0 0 128a76.8 76.8 0 0 1-76.8 76.8l-768 0a76.8 76.8 0 0 1-76.8-76.8L0 332.8A76.8 76.8 0 0 1 76.8 256l768 1e-8a76.8 76.8 0 0 1 76.8 76.8l0 127.99999999 25.6 0a25.6 25.6 0 0 1 25.6 25.6l1e-8 102.4z m-102.40000001 153.6L870.4 332.8a25.6 25.6 0 0 0-25.6-25.6l-768 0a25.6 25.6 0 0 0-25.6 25.6l-1e-8 409.6a25.6 25.6 0 0 0 25.60000001 25.6l768-1e-8a25.6 25.6 0 0 0 25.6-25.59999999z m-51.2-25.6l-716.8 0L102.40000001 358.4 819.2 358.4l0 358.4z" p-id="6614" fill="#ffffff"></path></svg>